<svg id="engineering_software_lab" data-name="engineering software lab" xmlns="http://www.w3.org/2000/svg" viewBox="0 0 700 700"><defs><style>.cls-1{fill:#002f53;}.cls-2{fill:#fff;}</style></defs><rect class="cls-1" width="700" height="700"/><path class="cls-2" d="M338.49,145.52a122,122,0,0,0-91,54.59L119.17,364.84A117.47,117.47,0,0,0,99.06,422.3H227.4L338.51,278.64c1-1,1-133.12,0-133.12Z"/><path class="cls-2" d="M317.42,434.75H98.09a105.71,105.71,0,0,0,3.86,29.7H317.42Z"/><path class="cls-2" d="M317.41,475H105.75v1A112.14,112.14,0,0,0,122,505.64H317.41Z"/><path class="cls-2" d="M132.57,518.08a119.17,119.17,0,0,0,87.15,36.4h98.65v-36.4H132.57Z"/><path class="cls-2" d="M600.92,422.3a132.5,132.5,0,0,0-20.11-57.46L452.46,199.09a125.72,125.72,0,0,0-91.94-53.57V278.64L472.57,422.3Z"/><path class="cls-2" d="M382.55,434.75v29.7h215.5a105.71,105.71,0,0,0,3.86-29.7Z"/><path class="cls-2" d="M382.55,505.64H577.94A111.85,111.85,0,0,0,594.22,476v-1H382.55Z"/><path class="cls-2" d="M381.59,518.08v36.4h98.65a119.17,119.17,0,0,0,87.15-36.4H381.59Z"/></svg>